<?xml version="1.0" encoding="UTF-8" standalone="no"?>
<!-- Created with Inkscape (http://www.inkscape.org/) -->

<svg
   version="1.1"
   id="svg1"
   width="1024"
   height="1024"
   viewBox="0 0 1024 1024"
   sodipodi:docname="Koordynuj Zdrowie 1 v2.svg"
   inkscape:export-filename="Logo Koordynuj Zdrowie.png"
   inkscape:export-xdpi="96"
   inkscape:export-ydpi="96"
   xmlns:inkscape="http://www.inkscape.org/namespaces/inkscape"
   xmlns:sodipodi="http://sodipodi.sourceforge.net/DTD/sodipodi-0.dtd"
   xmlns="http://www.w3.org/2000/svg"
   xmlns:svg="http://www.w3.org/2000/svg">
  <defs
     id="defs1" />
  <sodipodi:namedview
     id="namedview1"
     pagecolor="#ffffff"
     bordercolor="#000000"
     borderopacity="0.25"
     inkscape:showpageshadow="2"
     inkscape:pageopacity="0.0"
     inkscape:pagecheckerboard="0"
     inkscape:deskcolor="#d1d1d1"
     showgrid="false">
    <inkscape:page
       x="0"
       y="0"
       width="1024"
       height="1024"
       id="page2"
       margin="0"
       bleed="0" />
    <inkscape:grid
       id="grid1"
       units="px"
       originx="0"
       originy="0"
       spacingx="1"
       spacingy="1"
       empcolor="#0099e5"
       empopacity="0.30196078"
       color="#0099e5"
       opacity="0.14901961"
       empspacing="5"
       enabled="true"
       visible="false" />
  </sodipodi:namedview>
  <g
     inkscape:groupmode="layer"
     inkscape:label="Image"
     id="g1">
    <g
       id="g2"
       transform="translate(8.894135,-48.80272)">
      <g
         id="g13"
         transform="matrix(2.160546,0,0,2.165902,100.06724,-624.16366)">
        <path
           style="fill:#119ee3"
           d="m 242.11364,630.74848 c -0.60471,-1.925 -2.99908,-10.42771 -5.32081,-18.89491 -3.50908,-12.79736 -4.42428,-15.11737 -5.42413,-13.75 -0.95556,1.30681 -2.97862,1.64491 -9.84254,1.64491 h -8.63976 v -4.45431 -4.45431 l 6.60711,-0.29569 6.60711,-0.29569 3.49761,-8.75 c 4.35484,-10.89455 4.24843,-10.91722 7.68666,1.63775 1.5646,5.71327 3.17981,10.92993 3.58936,11.59259 0.40955,0.66266 2.84883,-9.74932 5.42062,-23.13775 2.5718,-13.38842 4.99887,-25.86472 5.39349,-27.72509 0.59207,-2.79124 1.69166,1.03844 6.29044,21.90858 l 5.57294,25.29109 7.60282,-0.222 7.60281,-0.22199 1.05894,3.81341 c 1.50684,5.4264 1.59745,5.31341 -4.26113,5.31341 h -5.33121 l -3.80761,9.75 c -2.09418,5.3625 -4.08264,10.06294 -4.41878,10.44541 -0.33615,0.38247 -2.37596,-6.96099 -4.53292,-16.31882 -2.15695,-9.35782 -4.23792,-16.42075 -4.62437,-15.6954 -0.38645,0.72534 -2.37878,10.31881 -4.42739,21.31881 -4.82224,25.89291 -4.86907,26.05277 -6.29926,21.5 z"
           id="path15" />
      </g>
      <path
         style="font-weight:600;font-size:85.3333px;font-family:'Adwaita Sans';-inkscape-font-specification:'Adwaita Sans Semi-Bold';white-space:pre;fill:#119ee3;fill-opacity:1;stroke-width:2.16322"
         d="m 906.89377,400.63657 q -5.85148,0 -9.72245,-3.70009 -3.87098,-3.79032 -3.87098,-9.29533 0,-5.50499 3.87098,-9.20506 3.87097,-3.70009 9.63242,-3.70009 5.8515,0 9.72245,3.70009 3.871,3.70007 3.871,9.29531 0,5.50501 -3.871,9.20508 -3.87095,3.70009 -9.63242,3.70009 z"
         id="path25" />
      <path
         style="font-weight:600;font-size:85.3333px;font-family:'Adwaita Sans';-inkscape-font-specification:'Adwaita Sans Semi-Bold';white-space:pre;fill:#4c4f53;stroke-width:2.16322"
         d="m 895.46091,414.80519 h 22.77574 v 105.0462 q 0,8.57336 -3.42089,14.80031 -3.33082,6.3172 -9.90249,9.74654 -6.57165,3.42936 -16.29411,3.42936 h -9.27234 v -18.50042 h 5.76145 q 5.49139,0 7.92202,-2.88786 2.43062,-2.88786 2.43062,-9.29531 z"
         id="path24" />
      <path
         style="font-weight:600;font-size:85.3333px;font-family:'Adwaita Sans';-inkscape-font-specification:'Adwaita Sans Semi-Bold';white-space:pre;fill:#4c4f53;stroke-width:2.16322"
         d="m 823.71281,512 q -9.9025,0 -17.55443,-4.24158 -7.65194,-4.3318 -11.97304,-12.72466 -4.32105,-8.48312 -4.32105,-20.66632 v -59.56225 h 22.68569 v 55.95242 q 0,10.46852 5.04129,15.88328 5.13129,5.41476 14.13356,5.41476 6.03151,0 10.7127,-2.43664 4.68118,-2.43665 7.38185,-7.58067 2.70069,-5.23427 2.70069,-13.35639 v -53.87676 h 22.77577 v 95.29964 h -22.32565 v -24.27616 h 4.4111 q -4.59115,12.7247 -12.96324,19.4931 Q 836.13594,512 823.71281,512 Z"
         id="path23" />
      <path
         style="font-weight:600;font-size:85.3333px;font-family:'Adwaita Sans';-inkscape-font-specification:'Adwaita Sans Semi-Bold';white-space:pre;fill:#4c4f53;stroke-width:2.16322"
         d="m 706.95331,456.22803 v 53.8768 h -22.68573 v -95.29964 h 22.32564 v 24.27611 h -4.41111 q 4.59115,-12.81491 12.87324,-19.49309 8.37211,-6.67819 20.70522,-6.67819 9.99253,0 17.64445,4.33179 7.65193,4.24155 11.97305,12.63442 4.32108,8.39285 4.32108,20.6663 v 59.5623 h -22.77577 v -55.95246 q 0,-10.46853 -5.04125,-15.88329 -4.95125,-5.41471 -14.13358,-5.41471 -5.94149,0 -10.62268,2.43662 -4.68118,2.43661 -7.47188,7.58064 -2.70068,5.14401 -2.70068,13.3564 z"
         id="path22" />
      <path
         style="font-weight:600;font-size:85.3333px;font-family:'Adwaita Sans';-inkscape-font-specification:'Adwaita Sans Semi-Bold';white-space:pre;fill:#4c4f53;stroke-width:2.16322"
         d="m 586.41291,547.8276 v -18.50042 h 11.25284 q 3.06077,0 5.13129,-1.08294 2.16054,-1.08295 3.69092,-3.42933 1.62042,-2.3464 2.88073,-6.04647 l 3.51087,-9.20508 -36.63923,-94.75817 h 24.03606 l 17.46441,49.6352 q 2.70068,7.94167 5.13129,15.88329 2.52065,7.85139 4.86122,15.70278 h -6.30156 q 2.25053,-7.85139 4.77118,-15.79301 2.52064,-7.94167 5.2213,-15.79306 l 17.37441,-49.6352 h 23.76599 l -42.49071,111.00239 q -2.88073,7.40019 -6.93176,12.27345 -4.05103,4.96352 -9.5424,7.30993 -5.40138,2.43664 -12.3331,2.43664 -3.60091,0 -7.38187,0 -3.78096,0 -7.47188,0 z"
         id="path21" />
      <path
         style="font-weight:600;font-size:85.3333px;font-family:'Adwaita Sans';-inkscape-font-specification:'Adwaita Sans Semi-Bold';white-space:pre;fill:#4c4f53;stroke-width:2.16322"
         d="m 512,512 q -12.33312,0 -21.69548,-6.22698 -9.27233,-6.22698 -14.40362,-17.41747 -5.04127,-11.19048 -5.04127,-25.9908 0,-14.61985 5.13127,-25.81031 5.13131,-11.19051 14.40364,-17.41748 9.27234,-6.22694 21.4254,-6.22694 6.21157,0 11.52291,1.71466 5.40135,1.62441 9.72245,5.05375 4.32111,3.42936 7.38188,8.6636 h 0.17997 v -52.70357 h 22.68573 v 134.46637 h -22.32564 v -14.5296 h -0.17998 q -2.97073,5.505 -7.38182,9.20508 -4.32112,3.60983 -9.8125,5.41475 Q 518.21157,512 512.00002,512 Z m 5.31134,-19.0419 q 7.47187,0 12.96328,-3.70008 5.49137,-3.79035 8.55215,-10.64901 3.06075,-6.94894 3.06075,-16.24426 0,-9.29533 -3.06075,-16.154 -3.06078,-6.85872 -8.55215,-10.64902 -5.49141,-3.79032 -12.96328,-3.79032 -6.93176,0 -12.24311,3.60981 -5.31134,3.5196 -8.28207,10.3783 -2.97075,6.76844 -2.97075,16.60523 0,9.83679 2.97075,16.69549 2.97073,6.85868 8.28207,10.37828 5.31135,3.51958 12.24311,3.51958 z"
         id="path20" />
      <path
         style="font-weight:600;font-size:85.3333px;font-family:'Adwaita Sans';-inkscape-font-specification:'Adwaita Sans Semi-Bold';white-space:pre;fill:#4c4f53;stroke-width:2.16322"
         d="m 410.79655,510.10483 v -95.29964 h 21.8755 v 15.79301 h 0.27007 q 2.61067,-8.21238 8.19208,-12.45394 5.67145,-4.24155 14.85375,-4.24155 2.34059,0 4.14102,0.0902 1.89049,0.0902 3.24084,0.27073 v 20.21507 q -1.17029,-0.18049 -4.23106,-0.45123 -3.06078,-0.27074 -6.48164,-0.27074 -5.31134,0 -9.72246,2.52689 -4.3211,2.43665 -6.93174,7.40015 -2.52064,4.96353 -2.52064,12.45394 v 53.96705 z"
         id="path19" />
      <path
         style="font-weight:600;font-size:85.3333px;font-family:'Adwaita Sans';-inkscape-font-specification:'Adwaita Sans Semi-Bold';white-space:pre;fill:#4c4f53;stroke-width:2.16322"
         d="m 348.23075,512.27072 q -13.95352,0 -24.5762,-6.22696 -10.53266,-6.31722 -16.47415,-17.5077 -5.85148,-11.19052 -5.85148,-25.99082 0,-14.80034 5.85148,-25.9908 5.94149,-11.28074 16.47415,-17.59795 10.62268,-6.31721 24.5762,-6.31721 14.04355,0 24.5762,6.31721 10.53267,6.31721 16.38413,17.59795 5.94152,11.19046 5.94152,25.9908 0,14.8003 -5.94152,25.99082 -5.85146,11.19048 -16.38413,17.5077 -10.53265,6.22696 -24.5762,6.22696 z m 0,-19.04189 q 7.29184,0 12.60318,-3.70007 5.40136,-3.70009 8.2821,-10.55877 2.97072,-6.94893 2.97072,-16.42475 0,-9.56607 -2.97072,-16.42477 -2.88074,-6.94891 -8.2821,-10.64898 -5.31134,-3.79034 -12.60318,-3.79034 -7.29185,0 -12.69319,3.79034 -5.40136,3.70007 -8.37212,10.64898 -2.88074,6.8587 -2.88074,16.42477 0,9.56608 2.88074,16.42475 2.97076,6.85868 8.37212,10.55877 5.40134,3.70007 12.69319,3.70007 z"
         id="path18" />
      <path
         style="font-weight:600;font-size:85.3333px;font-family:'Adwaita Sans';-inkscape-font-specification:'Adwaita Sans Semi-Bold';white-space:pre;fill:#4c4f53;stroke-width:2.16322"
         d="m 243.17423,512.27072 q -13.95352,0 -24.57619,-6.22696 -10.53264,-6.31722 -16.47414,-17.5077 -5.85148,-11.19052 -5.85148,-25.99082 0,-14.80034 5.85148,-25.9908 5.9415,-11.28074 16.47414,-17.59795 10.62267,-6.31721 24.57619,-6.31721 14.04355,0 24.57622,6.31721 10.53265,6.31721 16.38413,17.59795 5.9415,11.19046 5.9415,25.9908 0,14.8003 -5.9415,25.99082 -5.85148,11.19048 -16.38413,17.5077 -10.53267,6.22696 -24.57622,6.22696 z m 0,-19.04189 q 7.29185,0 12.60319,-3.70007 5.40137,-3.70009 8.28208,-10.55877 2.97076,-6.94893 2.97076,-16.42475 0,-9.56607 -2.97076,-16.42477 -2.88071,-6.94891 -8.28208,-10.64898 -5.31134,-3.79034 -12.60319,-3.79034 -7.29184,0 -12.69319,3.79034 -5.40135,3.70007 -8.3721,10.64898 -2.88076,6.8587 -2.88076,16.42477 0,9.56608 2.88076,16.42475 2.97075,6.85868 8.3721,10.55877 5.40135,3.70007 12.69319,3.70007 z"
         id="path17" />
      <path
         style="font-weight:600;font-size:85.3333px;font-family:'Adwaita Sans';-inkscape-font-specification:'Adwaita Sans Semi-Bold';white-space:pre;fill:#4c4f53;stroke-width:2.16322"
         d="m 102.73883,478.60901 v -30.05188 q 4.59115,-5.50499 9.1823,-10.82953 4.68118,-5.41471 9.36237,-10.73924 4.68116,-5.41477 9.27233,-10.8295 l 35.64901,-40.5204 h 29.34738 l -56.89435,64.07457 h -1.71042 z M 85.81454,510.10483 V 375.63846 h 23.76599 v 40.33989 32.2178 11.46122 50.44746 z m 82.91092,0 -43.12086,-63.62336 14.40362,-18.3199 56.44423,81.94326 z"
         id="text1" />
      <path
         style="font-weight:600;font-size:85.3333px;font-family:'Adwaita Sans';-inkscape-font-specification:'Adwaita Sans Semi-Bold';letter-spacing:0px;word-spacing:0px;white-space:pre;opacity:1;fill:#4c5051;stroke-width:2.16322"
         d="m 804.76519,709.48096 q -14.22359,0 -24.6662,-6.40746 -10.44263,-6.40745 -16.11408,-17.59793 -5.58141,-11.28076 -5.58141,-25.72008 0,-14.5296 5.76144,-25.81032 5.8515,-11.28074 16.11408,-17.68818 10.26258,-6.40749 23.58597,-6.40749 10.26256,0 18.63467,3.60984 8.37213,3.60986 14.40367,10.28804 6.03149,6.58796 9.27233,15.70276 3.2408,9.02461 3.2408,19.94435 v 6.22696 h -82.01068 v -15.70276 h 70.66782 l -10.17256,4.24156 q 0,-8.12213 -2.97077,-13.98812 -2.88071,-5.86596 -8.19205,-9.02459 -5.22132,-3.24886 -12.51315,-3.24886 -7.20183,0 -12.51316,3.24886 -5.31134,3.15863 -8.19207,9.02459 -2.88073,5.86599 -2.88073,13.98812 v 9.83679 q 0,8.21238 2.88073,14.43935 2.88073,6.22697 8.3721,9.6563 5.58141,3.42933 13.41339,3.42933 5.67144,0 10.08257,-1.71465 4.41109,-1.71468 7.38184,-4.78305 2.97076,-3.06833 4.23106,-7.1294 h 21.24536 q -1.80045,9.29533 -7.92198,16.42475 -6.03154,7.12941 -15.21385,11.19048 -9.1823,3.97081 -20.34514,3.97081 z"
         id="path13" />
      <path
         style="font-weight:600;font-size:85.3333px;font-family:'Adwaita Sans';-inkscape-font-specification:'Adwaita Sans Semi-Bold';letter-spacing:0px;word-spacing:0px;white-space:pre;fill:#119ee3;fill-opacity:1;stroke-width:2.16322"
         d="m 731.3067,597.84682 q -5.85148,0 -9.72246,-3.70008 -3.87098,-3.79032 -3.87098,-9.29533 0,-5.505 3.87098,-9.20508 3.87098,-3.70008 9.63242,-3.70008 5.85148,0 9.72246,3.70008 3.87099,3.70008 3.87099,9.29532 0,5.50498 -3.87099,9.20509 -3.87098,3.70008 -9.63242,3.70008 z"
         id="path12" />
      <path
         style="font-weight:600;font-size:85.3333px;font-family:'Adwaita Sans';-inkscape-font-specification:'Adwaita Sans Semi-Bold';letter-spacing:0px;word-spacing:0px;white-space:pre;fill:#119ee3;fill-opacity:1;stroke-width:2.16322"
         d="m 869.9836,709.43284 q -5.85147,0 -9.72246,-3.70007 -3.87098,-3.79032 -3.87098,-9.29533 0,-5.50498 3.87098,-9.2051 3.87099,-3.70007 9.63242,-3.70007 5.85148,0 9.72247,3.70007 3.87098,3.70012 3.87098,9.29535 0,5.50499 -3.87098,9.20508 -3.87099,3.70007 -9.63243,3.70007 z"
         id="path12-8" />
      <path
         style="font-weight:600;font-size:85.3333px;font-family:'Adwaita Sans';-inkscape-font-specification:'Adwaita Sans Semi-Bold';letter-spacing:0px;word-spacing:0px;white-space:pre;fill:#4c5051;stroke-width:2.16322"
         d="m 719.96384,707.31505 v -95.29963 h 22.68573 v 95.29963 z"
         id="path11" />
      <path
         style="font-weight:600;font-size:85.3333px;font-family:'Adwaita Sans';-inkscape-font-specification:'Adwaita Sans Semi-Bold';letter-spacing:0px;word-spacing:0px;white-space:pre;fill:#4c5051;stroke-width:2.16322"
         d="m 390.66579,707.31505 v -95.29963 h 21.87553 v 15.79303 h 0.27007 q 2.61066,-8.21237 8.19206,-12.45394 5.67142,-4.24155 14.85376,-4.24155 2.34057,0 4.14102,0.0903 1.89047,0.0902 3.24082,0.27074 v 20.21507 q -1.17027,-0.1805 -4.23108,-0.45122 -3.06077,-0.27072 -6.48162,-0.27072 -5.31132,0 -9.72246,2.52687 -4.32109,2.43665 -6.93174,7.40016 -2.52064,4.96354 -2.52064,12.45393 v 53.96703 z"
         id="path8" />
      <path
         style="font-weight:600;font-size:85.3333px;font-family:'Adwaita Sans';-inkscape-font-specification:'Adwaita Sans Semi-Bold';letter-spacing:0px;word-spacing:0px;white-space:pre;fill:#4c5051;stroke-width:2.16322"
         d="m 319.18776,709.21022 q -12.33312,0 -21.69547,-6.22695 -9.27233,-6.22697 -14.40364,-17.41747 -5.04125,-11.19046 -5.04125,-25.9908 0,-14.61985 5.13127,-25.81031 5.1313,-11.19051 14.40364,-17.41747 9.27233,-6.22698 21.42542,-6.22698 6.21157,0 11.52291,1.71469 5.40134,1.62441 9.72244,5.05375 4.32108,3.42935 7.38187,8.66362 h 0.17997 v -52.70359 h 22.68573 V 707.31505 H 348.175 v -14.52958 h -0.17997 q -2.97075,5.50501 -7.38186,9.20508 -4.32108,3.60984 -9.81248,5.41476 -5.40136,1.80491 -11.61293,1.80491 z m 5.31135,-19.04187 q 7.47188,0 12.96325,-3.70007 5.49142,-3.79034 8.55219,-10.64904 3.06076,-6.94891 3.06076,-16.24424 0,-9.29533 -3.06076,-16.154 -3.06077,-6.85871 -8.55219,-10.64903 -5.49137,-3.79034 -12.96325,-3.79034 -6.93176,0 -12.24309,3.60985 -5.31134,3.51959 -8.28209,10.37828 -2.97075,6.76844 -2.97075,16.60524 0,9.8368 2.97075,16.69549 2.97075,6.85867 8.28209,10.37828 5.31133,3.51958 12.24309,3.51958 z"
         id="path7" />
      <path
         style="font-weight:600;font-size:85.3333px;font-family:'Adwaita Sans';-inkscape-font-specification:'Adwaita Sans Semi-Bold';letter-spacing:0px;word-spacing:0px;white-space:pre;fill:#4c5051;stroke-width:2.16322"
         d="m 161.64803,707.31505 v -18.95162 l 62.92586,-78.78467 q 4.95126,-6.04645 10.08255,-12.09294 5.22131,-6.04647 10.53265,-12.18318 l 2.88073,8.21237 q -8.19207,0 -16.38413,0 -8.19207,0 -16.38413,0 h -51.31292 v -20.6663 h 102.71588 v 18.95161 l -61.66556,77.61148 q -5.13126,6.40744 -10.53264,12.72467 -5.31134,6.31722 -10.89276,12.72467 l -2.88072,-8.21237 q 8.10205,0 16.20409,0 8.10203,0 16.20409,0 h 54.28368 v 20.66628 z"
         id="text2" />
      <path
         style="font-weight:600;font-size:85.3333px;font-family:'Adwaita Sans';-inkscape-font-specification:'Adwaita Sans Semi-Bold';white-space:pre;fill:#4c4f53;stroke-width:2.16322"
         d="m 499.25393,708.13437 q -13.95352,0 -24.5762,-6.22696 -10.53266,-6.31722 -16.47415,-17.5077 -5.85148,-11.19052 -5.85148,-25.99082 0,-14.80034 5.85148,-25.9908 5.94149,-11.28074 16.47415,-17.59795 10.62268,-6.31721 24.5762,-6.31721 14.04355,0 24.5762,6.31721 10.53267,6.31721 16.38413,17.59795 5.94152,11.19046 5.94152,25.9908 0,14.8003 -5.94152,25.99082 -5.85146,11.19048 -16.38413,17.5077 -10.53265,6.22696 -24.5762,6.22696 z m 0,-19.04189 q 7.29184,0 12.60318,-3.70007 5.40136,-3.70009 8.2821,-10.55877 2.97072,-6.94893 2.97072,-16.42475 0,-9.56607 -2.97072,-16.42477 -2.88074,-6.94891 -8.2821,-10.64898 -5.31134,-3.79034 -12.60318,-3.79034 -7.29185,0 -12.69319,3.79034 -5.40136,3.70007 -8.37212,10.64898 -2.88074,6.8587 -2.88074,16.42477 0,9.56608 2.88074,16.42475 2.97076,6.85868 8.37212,10.55877 5.40134,3.70007 12.69319,3.70007 z"
         id="path1" />
    </g>
  </g>
</svg>
